<svg xmlns="http://www.w3.org/2000/svg" viewBox="0 0 769.17 256.4"><defs><style>.a{stroke:#000;stroke-miterlimit:10;}</style></defs><path class="a" d="M274.6,300a115.09,115.09,0,0,1-14.3.74c-1.1,0-2.29,0-3.56,0h-.34a26.26,26.26,0,0,0-2.68-.43,114.3,114.3,0,0,1-13-2.52,48.24,48.24,0,0,1-12.66-5.34,19.12,19.12,0,0,0-3.1-1.57h0c-.11.06-.17.37-.17.94a20.65,20.65,0,0,0,.13,2.12c.05.57.08,1,.08,1.19a1.8,1.8,0,0,1-.89,1.51,3.14,3.14,0,0,1-1.79.61q-3,0-3-4.41a31.74,31.74,0,0,1,.81-5.48q-.35-.34-1-.9a20.71,20.71,0,0,1-2.51-2.48,3.31,3.31,0,0,1-.64-2.06,2.44,2.44,0,0,1,2.38-2.51,2.82,2.82,0,0,1,1.62.53,17.63,17.63,0,0,1,2.08,1.85q2.25-5.43,4.35-10T232,260.81c.77-1.39,1.27-2.32,1.51-2.8a2.82,2.82,0,0,0,.36-1.15,2.36,2.36,0,0,0-.13-.64,4.18,4.18,0,0,1-.21-1.23q0-2.81,3.49-3.82c.25,0,.6-.36,1.06-1s1.31-2,2.59-4.1q4.89-8,12-18.1t10-13a3.54,3.54,0,0,1,2.38-1.27,2.64,2.64,0,0,1,1.78.7,2.19,2.19,0,0,1,.81,1.72,2.34,2.34,0,0,1-.17.85,2.72,2.72,0,0,1-.94,1.28q-.84.54-6.22,8.07T250,241.42q-5,7.58-5,8.26v0a.54.54,0,0,0,.3.05,119,119,0,0,0,11.83-1.66q9.87-1.67,14.55-2.8a244.72,244.72,0,0,0,24.87-7.14,97,97,0,0,0,18.82-8.73q7.83-4.86,10.3-10.17a9.15,9.15,0,0,0,.66-1.7,8.55,8.55,0,0,0,.15-1.83q0-4.08-4.55-7.46T309.11,203A83.47,83.47,0,0,0,290.25,201a120.34,120.34,0,0,0-22,2.21,113.06,113.06,0,0,0-21.07,5.9,100.7,100.7,0,0,0-9.73,4.42,37.31,37.31,0,0,0-6.37,4,3.18,3.18,0,0,0-.85.83,2.33,2.33,0,0,0-.21,1.13c-.09,1.61-.81,2.42-2.17,2.42a2.58,2.58,0,0,1-2-1,3.34,3.34,0,0,1-.83-2.27q0-2.29,3-5.1a38.28,38.28,0,0,1,8.39-5.65,91.44,91.44,0,0,1,12.74-5.35,140,140,0,0,1,34-6.84c1.42-.08,3.28-.13,5.57-.13q3.69,0,7.41.15t5.84.41A69.34,69.34,0,0,1,318.18,200a25.92,25.92,0,0,1,10.14,6.5,13.54,13.54,0,0,1,3.56,9.09,14.85,14.85,0,0,1-1.63,6.71,22.94,22.94,0,0,1-5.06,6.44,48.4,48.4,0,0,1-8.7,6.2,104.59,104.59,0,0,1-12.58,6q-7.29,3-16.59,5.76a225.2,225.2,0,0,1-40,8.36c-.8.09-1.49.2-2.09.32s-.89.24-.89.32.85.31,2.55.83l4.08,1.25q14.86,4.63,22.56,7.56,11.42,4.51,16.63,9.35t5.2,9.9a10.63,10.63,0,0,1-2.48,6.67,19.6,19.6,0,0,1-7.2,5.35A35.26,35.26,0,0,1,274.6,300Zm2.8-6.18a26.7,26.7,0,0,0,9.63-4.1c2.2-1.69,3.31-3.45,3.31-5.29q0-2.34-2.47-5A29.93,29.93,0,0,0,280.4,274,90.45,90.45,0,0,0,268,268.63q-3.18-1.15-10-3.34t-12.55-3.91c-3.81-1.14-5.89-1.72-6.23-1.72h0q-.51.34-3.61,6.25t-5.82,11.74q-2.72,5.85-2.72,7c0,.43,1,1.23,3,2.42a52.53,52.53,0,0,0,7.93,3.7A73.17,73.17,0,0,0,249.28,294a65,65,0,0,0,13.23,1.34A62.52,62.52,0,0,0,277.4,293.78Z" transform="translate(-215.41 -59.42)"/><path class="a" d="M324.85,259.83a7,7,0,0,1-1.5-4.54,11.4,11.4,0,0,1,.38-3.14,27.53,27.53,0,0,1,1.49-3.79,53.93,53.93,0,0,1,4-6.35,77.62,77.62,0,0,1,5.82-7.43q2.91-3.26,4.27-3.25a2.53,2.53,0,0,1,1.7.59,2,2,0,0,1,.68,1.53,2.87,2.87,0,0,1-.51,1.62,20.4,20.4,0,0,1-2,2.33,53,53,0,0,0-5.48,7,50.42,50.42,0,0,0-3.78,6.63,11.8,11.8,0,0,0-1.32,4.25.87.87,0,0,0,.3.76,1.94,1.94,0,0,0,1.06.21q3.15,0,9.75-4a119.68,119.68,0,0,0,14.63-10.68q2.85-2.38,3.78-3a3.38,3.38,0,0,1,1.75-.59,3.1,3.1,0,0,1,2.08.81,2.7,2.7,0,0,1,1,2c0,.5-.13,1.71-.39,3.61a46.94,46.94,0,0,0-.59,5.48,6.63,6.63,0,0,0,.64,3.22,4.82,4.82,0,0,0,2.08,1.92,7.91,7.91,0,0,0,1.63.59,11.7,11.7,0,0,0,2.15.13q8.63,0,22.09-9.73c1.67-1.19,2.77-1.94,3.29-2.25a2.8,2.8,0,0,1,1.38-.47,2.47,2.47,0,0,1,2,.79,2.66,2.66,0,0,1,.66,1.76,2.87,2.87,0,0,1-1,1.87,34.08,34.08,0,0,1-3.76,3q-14.53,10.4-25,10.4-5.94,0-8.75-3.29a12,12,0,0,1-2.8-8c0-.48,0-1.51.12-3.1v0q-18.35,15-27.23,15A5.58,5.58,0,0,1,324.85,259.83Z" transform="translate(-215.41 -59.42)"/><path class="a" d="M397.26,261.36a9,9,0,0,1-4.42-2.95,7.6,7.6,0,0,1-1.7-4.91,16.11,16.11,0,0,1,1.05-5.2,35.17,35.17,0,0,1,6.94-11.62,8.93,8.93,0,0,1,1.59-1.42,2.56,2.56,0,0,1,1.38-.45,2.32,2.32,0,0,1,1.58.66,2.14,2.14,0,0,1,.72,1.64,13.83,13.83,0,0,1-1.53,2.55q-2.67,4.11-4.48,7.56a13.4,13.4,0,0,0-1.81,6.11,2.64,2.64,0,0,0,1.13,2.34,5.42,5.42,0,0,0,3.08.77q3.78,0,10.19-2.64a38.6,38.6,0,0,0,10.54-6.16c1.5-1.24,2.5-1.87,3-1.87a3.17,3.17,0,0,1,2.68,2.68c0,1.27-1.32,2.84-3.95,4.69a54.4,54.4,0,0,1-7.31,4.44,50.93,50.93,0,0,1-7.07,2.81,26.1,26.1,0,0,1-8,1.36A11.65,11.65,0,0,1,397.26,261.36Zm6.88-28.46a2.48,2.48,0,0,1-.93-2.21,5.07,5.07,0,0,1,1.49-2.44,11.14,11.14,0,0,1,2.08-2.06,2.34,2.34,0,0,1,1.06-.26,2.25,2.25,0,0,1,1.59.66,2.2,2.2,0,0,1,.7,1.68,3.8,3.8,0,0,1-.8,2,9.31,9.31,0,0,1-1.92,2,3.29,3.29,0,0,1-1.91.87A3.61,3.61,0,0,1,404.14,232.9Z" transform="translate(-215.41 -59.42)"/><path class="a" d="M431.67,261.58Q424.46,260,423,253.5a18.87,18.87,0,0,1-.34-4.24,33,33,0,0,1,.63-7.06,83.31,83.31,0,0,1,6.46-16.95A234.36,234.36,0,0,1,442.33,203a108,108,0,0,1,9-13q3.47-4,5.63-4a2.48,2.48,0,0,1,1.85.82,3,3,0,0,1,.78,2.15,4.83,4.83,0,0,1-.83,2.8,2.66,2.66,0,0,1-2.35,1.23,3,3,0,0,0-1,.13,1.13,1.13,0,0,0-.53.51q-1.87,2.34-6.35,9.39t-7.67,12.79q-8.42,15-11.64,25a35.37,35.37,0,0,0-1.36,8.36q0,4.13,2,5.74a7.92,7.92,0,0,0,5.2,1.61q3.1,0,9-2.69a44.26,44.26,0,0,0,8.73-5q2.94-2.17,3.7-2.62a2.94,2.94,0,0,1,1.44-.44,2.49,2.49,0,0,1,1.77.7,2.29,2.29,0,0,1,.74,1.72,3.91,3.91,0,0,1-.21,1.44q-.56,1-5,4a62.93,62.93,0,0,1-10,5.43,24.63,24.63,0,0,1-9.68,2.43,14.84,14.84,0,0,1-2,.12A11.63,11.63,0,0,1,431.67,261.58Z" transform="translate(-215.41 -59.42)"/><path class="a" d="M447.39,272.24a3,3,0,0,1-.94-2.3q0-1.44,2.26-6.9t5.05-10.81q3.92-7.39,11.51-20t13.81-21.83c.14-.2.32-.5.55-.89a16.55,16.55,0,0,0,1.53-2.55,22.3,22.3,0,0,0-4-.19q-3.94-.08-9.2-.13l-9.75-.09-5.18,0a40.14,40.14,0,0,0-4.93.17h-.38a13,13,0,0,1-3.52-.53,4.7,4.7,0,0,1-2.43-1.21,2.48,2.48,0,0,1-.38-1.36,2.6,2.6,0,0,1,.38-1.38,1.92,1.92,0,0,1,1.07-.83q.76-.07,6.54-.08,9.76,0,26.68.21l8.83.09c.43-.49,2-2.68,4.76-6.59,4.11-5.8,6.43-9,7-9.51a2.71,2.71,0,0,1,1.91-.85,2.15,2.15,0,0,1,1.61.7,2.42,2.42,0,0,1,.68,1.76,7.68,7.68,0,0,1-1.53,3.36q-1.53,2.33-4.33,6.11c-1.22,1.65-2.1,2.88-2.66,3.7a4.29,4.29,0,0,0-.82,1.61,36.07,36.07,0,0,0,5,.43l9.81.42q15.81.72,25.3,1.26T542,205a2.51,2.51,0,0,1,1.48,2.3q0,2.63-3.4,2.63l-5.69-.3q-41.25-2.09-44.94-2.08a5.47,5.47,0,0,0-2,.17c-.46.57-2,2.83-4.59,6.8s-5,7.62-7.14,11q-10.32,16.4-16.8,28.52t-7,16.12a3.85,3.85,0,0,1-.95,2.26,2.41,2.41,0,0,1-1.72.72A2.74,2.74,0,0,1,447.39,272.24Z" transform="translate(-215.41 -59.42)"/><path class="a" d="M522.77,298.53a34.24,34.24,0,0,1-10.64-4.8,13.86,13.86,0,0,0-1.28-.8c-.14,0-.21.22-.21.68a2.48,2.48,0,0,0,.34,1.19,2.58,2.58,0,0,1,.3,1.18,2.75,2.75,0,0,1-.87,2.07,2.84,2.84,0,0,1-2,.82,3,3,0,0,1-2.38-1.16,4.29,4.29,0,0,1-1-2.83,9,9,0,0,1,.28-2.06c.18-.75.53-1.92,1-3.5l.13-.39q-2.76-3.57-4-5.46a6.07,6.07,0,0,1-1.24-2.91,2.7,2.7,0,0,1,.83-2,2.62,2.62,0,0,1,1.89-.83,2.19,2.19,0,0,1,1.34.47,6.72,6.72,0,0,1,1.47,2c1.07,1.89,1.77,2.84,2.08,2.84a13.52,13.52,0,0,0,.76-1.48q7.27-15.35,21.75-37.68a256.68,256.68,0,0,1,15.76-22.28q5.77-7,8-6.95a2.45,2.45,0,0,1,1.76.7,2.32,2.32,0,0,1,.75,1.76,3.29,3.29,0,0,1-.34,1.66,3.37,3.37,0,0,1-1.24,1.06q-2.41,1.2-10.68,12.85T528.1,259.26a262.42,262.42,0,0,0-13.76,25.17l-1.49,3.27.64.38q7.39,5.7,18.52,7a41,41,0,0,0,4.72.22,59.89,59.89,0,0,0,30.5-8.16A82.21,82.21,0,0,0,585.15,273,74.67,74.67,0,0,0,598.09,255q4.77-9.42,4.78-17.71a25,25,0,0,0-2.47-11,34.56,34.56,0,0,0-14.82-15.39q-10.2-5.72-26.81-5.72a85.81,85.81,0,0,0-16.93,1.64A84.67,84.67,0,0,0,527.23,211a57.38,57.38,0,0,0-10.24,5.1q-3.75,2.5-4.44,4.21-.67,2-2.16,2a2.9,2.9,0,0,1-1.87-.7,2.33,2.33,0,0,1-.85-1.9c0-1.35.83-2.88,2.51-4.56a32.71,32.71,0,0,1,6.88-5.06,71.2,71.2,0,0,1,9.92-4.67A81.65,81.65,0,0,1,538.3,202a90.27,90.27,0,0,1,20.3-2.3q16.78,0,28.8,6.12A38.66,38.66,0,0,1,605.2,224a26.6,26.6,0,0,1,2.19,5.69,36.33,36.33,0,0,1,.53,7.39c0,2.24,0,3.84-.08,4.78a21.83,21.83,0,0,1-.43,3.08,59.59,59.59,0,0,1-9.56,20.82,89.22,89.22,0,0,1-17.69,19,70.78,70.78,0,0,1-21.39,12.15,75,75,0,0,1-22,3.61A49.87,49.87,0,0,1,522.77,298.53Z" transform="translate(-215.41 -59.42)"/><path class="a" d="M618.5,261.36a9,9,0,0,1-4.42-2.95,7.6,7.6,0,0,1-1.7-4.91,16.34,16.34,0,0,1,1-5.2,35.43,35.43,0,0,1,7-11.62,8.29,8.29,0,0,1,1.59-1.42,2.56,2.56,0,0,1,1.38-.45,2.27,2.27,0,0,1,1.57.66,2.12,2.12,0,0,1,.73,1.64,13.83,13.83,0,0,1-1.53,2.55q-2.68,4.11-4.48,7.56a13.4,13.4,0,0,0-1.81,6.11,2.64,2.64,0,0,0,1.13,2.34,5.4,5.4,0,0,0,3.08.77q3.78,0,10.19-2.64a38.6,38.6,0,0,0,10.54-6.16c1.5-1.24,2.5-1.87,3-1.87a3.17,3.17,0,0,1,2.68,2.68c0,1.27-1.32,2.84-4,4.69a55,55,0,0,1-7.31,4.44,50.93,50.93,0,0,1-7.07,2.81,26.1,26.1,0,0,1-8,1.36A11.65,11.65,0,0,1,618.5,261.36Zm6.88-28.46a2.48,2.48,0,0,1-.93-2.21,5.11,5.11,0,0,1,1.48-2.44,11.39,11.39,0,0,1,2.09-2.06,2.34,2.34,0,0,1,1.06-.26,2.27,2.27,0,0,1,1.59.66,2.2,2.2,0,0,1,.7,1.68,3.74,3.74,0,0,1-.81,2,9,9,0,0,1-1.91,2,3.29,3.29,0,0,1-1.91.87A3.57,3.57,0,0,1,625.38,232.9Z" transform="translate(-215.41 -59.42)"/><path class="a" d="M614.93,313a11.74,11.74,0,0,1-1.57-6.59,28.65,28.65,0,0,1,1.27-8A68.41,68.41,0,0,1,618.2,289q2.29-5,5.31-10.32t6.67-11c.06-.09.13-.2.21-.34,1.22-1.93,2-3.15,2.21-3.66a3.58,3.58,0,0,0,.39-1.65,2.82,2.82,0,0,1,2.08-3,3.38,3.38,0,0,0,1.36-1c.42-.48,1.37-1.72,2.84-3.74q4.38-6,8.54-11t10.28-11.51a42.37,42.37,0,0,1,3.17-3.19,2.79,2.79,0,0,1,1.67-.8,2.61,2.61,0,0,1,1.85.8,2.64,2.64,0,0,1,.83,2,2.49,2.49,0,0,1-.32,1.21,2.07,2.07,0,0,1-.91.87,30.27,30.27,0,0,0-3.89,4.06q-3.21,3.67-7.24,8.56t-6.93,8.6c-1.92,2.48-2.88,3.84-2.88,4.1,0,0,.11,0,.25,0a37.19,37.19,0,0,0,6.76-1A111.27,111.27,0,0,0,661.58,254a138.08,138.08,0,0,0,13.67-5.29,9.71,9.71,0,0,1,3.61-1,2.53,2.53,0,0,1,1.87.73,2.29,2.29,0,0,1,.73,1.7,2,2,0,0,1-.9,1.74q-.76.68-6.75,3.23a140,140,0,0,1-13.4,4.84,91,91,0,0,1-15.4,3.31c-1.47.2-2.85.34-4.12.43l-.75.1a.14.14,0,0,0-.1.15,5.3,5.3,0,0,0,.64,1.45,34.9,34.9,0,0,1,1.78,4.35,15.69,15.69,0,0,1,.72,4.91,24.44,24.44,0,0,1-.78,5.8,68.39,68.39,0,0,1-2.49,7.58,94,94,0,0,1-8.6,17.54q-4.53,6.93-8.86,9.14a7.85,7.85,0,0,1-3.31.63A4.86,4.86,0,0,1,614.93,313Zm7.92-6.23a28.72,28.72,0,0,0,4.06-5.16,82.72,82.72,0,0,0,4.5-8.22,94,94,0,0,0,4.4-10.51,34.52,34.52,0,0,0,2.1-9.22,14.88,14.88,0,0,0-.31-3.23,9.87,9.87,0,0,0-.71-2.16c-.25-.51-.43-.77-.55-.77a10.2,10.2,0,0,0-1.36,1.87c-.82,1.25-1.77,2.75-2.87,4.52s-2,3.37-2.86,4.78a117.8,117.8,0,0,0-7.71,15.53q-2.65,6.78-2.66,10.94a12.73,12.73,0,0,0,.21,2.78c.15.55.42.83.81.83C620.53,308.73,621.51,308.07,622.85,306.75Z" transform="translate(-215.41 -59.42)"/><path class="a" d="M648,313a11.74,11.74,0,0,1-1.57-6.59,28.65,28.65,0,0,1,1.27-8,68.41,68.41,0,0,1,3.57-9.37q2.29-5,5.31-10.32t6.67-11c.06-.09.13-.2.21-.34,1.22-1.93,2-3.15,2.21-3.66a3.58,3.58,0,0,0,.39-1.65,2.82,2.82,0,0,1,2.08-3,3.38,3.38,0,0,0,1.36-1c.42-.48,1.37-1.72,2.84-3.74q4.38-6,8.54-11t10.28-11.51a42.37,42.37,0,0,1,3.17-3.19,2.78,2.78,0,0,1,1.68-.8,2.59,2.59,0,0,1,1.84.8,2.64,2.64,0,0,1,.83,2,2.49,2.49,0,0,1-.32,1.21,2.07,2.07,0,0,1-.91.87,30.27,30.27,0,0,0-3.89,4.06q-3.21,3.67-7.24,8.56t-6.93,8.6c-1.92,2.48-2.88,3.84-2.88,4.1,0,0,.11,0,.25,0a37.19,37.19,0,0,0,6.76-1A111.27,111.27,0,0,0,694.63,254a138.08,138.08,0,0,0,13.67-5.29,9.7,9.7,0,0,1,3.62-1,2.52,2.52,0,0,1,1.86.73,2.32,2.32,0,0,1,.73,1.7,2,2,0,0,1-.9,1.74q-.76.68-6.75,3.23a140,140,0,0,1-13.4,4.84,91.17,91.17,0,0,1-15.4,3.31c-1.47.2-2.85.34-4.12.43l-.75.1a.14.14,0,0,0-.1.15,5.47,5.47,0,0,0,.63,1.45,33.52,33.52,0,0,1,1.79,4.35,15.69,15.69,0,0,1,.72,4.91,24.44,24.44,0,0,1-.78,5.8A68.39,68.39,0,0,1,673,288a94,94,0,0,1-8.6,17.54q-4.53,6.93-8.86,9.14a7.85,7.85,0,0,1-3.31.63A4.86,4.86,0,0,1,648,313Zm7.92-6.23a28.72,28.72,0,0,0,4.06-5.16,82.72,82.72,0,0,0,4.5-8.22,94,94,0,0,0,4.4-10.51,34.52,34.52,0,0,0,2.1-9.22,14.88,14.88,0,0,0-.31-3.23,9.87,9.87,0,0,0-.71-2.16c-.25-.51-.43-.77-.55-.77a10.2,10.2,0,0,0-1.36,1.87c-.82,1.25-1.77,2.75-2.87,4.52s-2,3.37-2.86,4.78a117.8,117.8,0,0,0-7.71,15.53q-2.65,6.78-2.66,10.94a12.73,12.73,0,0,0,.21,2.78c.15.55.42.83.81.83C653.57,308.73,654.56,308.07,655.9,306.75Z" transform="translate(-215.41 -59.42)"/><path class="a" d="M717.76,261.26a11.68,11.68,0,0,1-3.42-1.28,11.37,11.37,0,0,1-2.59-2.1,8.25,8.25,0,0,1-2.3-5.82,15.91,15.91,0,0,1,3-8.84,26.3,26.3,0,0,1,7.65-7.54,16.58,16.58,0,0,1,9-3,9,9,0,0,1,3.85.7,5.07,5.07,0,0,1,2.27,2.15,6.24,6.24,0,0,1,.59,1.42,8.3,8.3,0,0,1,.13,1.8,8.71,8.71,0,0,1-.15,1.94,10.78,10.78,0,0,1-.7,1.72q-1.78,3.39-6.82,5.82a30.52,30.52,0,0,1-11.28,2.84l-2.16.22a4.42,4.42,0,0,0,1.72,3.86c1.15.82,3.23,1.23,6.27,1.23a35,35,0,0,0,10.59-1.91,51.39,51.39,0,0,0,12.26-6c1.64-1.16,2.87-1.74,3.7-1.74a2.21,2.21,0,0,1,1.63.66,2.17,2.17,0,0,1,.66,1.59c0,1-.77,2.11-2.32,3.36a34.32,34.32,0,0,1-5.94,3.71,61.22,61.22,0,0,1-7.59,3.25,41.66,41.66,0,0,1-7,1.92,36.61,36.61,0,0,1-6,.46A24.53,24.53,0,0,1,717.76,261.26Zm3.16-15.83a23.32,23.32,0,0,0,7.14-3.08c1.9-1.29,2.84-2.45,2.84-3.5,0-.62-.48-.94-1.44-.94a10.26,10.26,0,0,0-3.82,1,20.45,20.45,0,0,0-4.51,2.74,26.16,26.16,0,0,0-2.61,2.47c-.83.91-1.25,1.5-1.25,1.78,0,.12.1.17.29.17A22.6,22.6,0,0,0,720.92,245.43Z" transform="translate(-215.41 -59.42)"/><path class="a" d="M741.18,261.09a2.58,2.58,0,0,1-.72-1.94,3.91,3.91,0,0,1,.66-1.84c.44-.75,1.2-1.89,2.27-3.42,2-2.86,3.51-5.23,4.59-7.1a79.7,79.7,0,0,0,3.93-7.35q2.15-4.45,2.15-5.18a2.61,2.61,0,0,1,.72-1.72,2.08,2.08,0,0,1,1.57-.83,2.66,2.66,0,0,1,2.68,2.72,8.83,8.83,0,0,1-.73,3.06q-.72,1.88-2,4.5a15.83,15.83,0,0,0-1.15,2.89v0a5,5,0,0,0,.93-.55l1.53-1a33.05,33.05,0,0,1,5.53-3,12.08,12.08,0,0,1,4.41-.91,8.23,8.23,0,0,1,3.4.62,13.86,13.86,0,0,1,3.4,2.52,12.13,12.13,0,0,0,2.95,2.23,6.5,6.5,0,0,0,2.57.45,11.16,11.16,0,0,0,2.85-.42,7.82,7.82,0,0,1,2-.34,2.33,2.33,0,0,1,1.91.76,2.74,2.74,0,0,1,.64,1.83c0,1.07-.77,1.95-2.3,2.63a11.94,11.94,0,0,1-4.92,1,12.66,12.66,0,0,1-4.49-.83,14.6,14.6,0,0,1-4.6-3.08,14.19,14.19,0,0,0-1.92-1.55,2.68,2.68,0,0,0-1.44-.44q-2.5,0-8.75,4.46a102,102,0,0,0-11.64,9.68,26.77,26.77,0,0,1-2.61,2.42,2.62,2.62,0,0,1-1.55.43A2.68,2.68,0,0,1,741.18,261.09Z" transform="translate(-215.41 -59.42)"/><path class="a" d="M791.84,261.26a11.9,11.9,0,0,1-3.42-1.28,11.59,11.59,0,0,1-2.59-2.1,8.24,8.24,0,0,1-2.29-5.82,16,16,0,0,1,3-8.84,26.55,26.55,0,0,1,7.65-7.54,16.58,16.58,0,0,1,9-3,8.9,8.9,0,0,1,3.84.7,5,5,0,0,1,2.28,2.15A6.24,6.24,0,0,1,810,237a8.3,8.3,0,0,1,.13,1.8,8.71,8.71,0,0,1-.15,1.94,10.78,10.78,0,0,1-.7,1.72q-1.79,3.39-6.82,5.82a30.62,30.62,0,0,1-11.28,2.84l-2.17.22a4.42,4.42,0,0,0,1.73,3.86q1.71,1.23,6.26,1.23a35.1,35.1,0,0,0,10.6-1.91,51.57,51.57,0,0,0,12.26-6q2.46-1.74,3.69-1.74a2.23,2.23,0,0,1,1.64.66,2.16,2.16,0,0,1,.65,1.59q0,1.49-2.31,3.36a34.44,34.44,0,0,1-6,3.71,61.73,61.73,0,0,1-7.58,3.25,41.49,41.49,0,0,1-7,1.92,36.4,36.4,0,0,1-6,.46A24.7,24.7,0,0,1,791.84,261.26ZM795,245.43a23.15,23.15,0,0,0,7.13-3.08c1.9-1.29,2.85-2.45,2.85-3.5,0-.62-.48-.94-1.44-.94a10.3,10.3,0,0,0-3.83,1,20.62,20.62,0,0,0-4.5,2.74,24.15,24.15,0,0,0-2.61,2.47c-.84.91-1.26,1.5-1.26,1.78,0,.12.1.17.3.17A22.6,22.6,0,0,0,795,245.43Z" transform="translate(-215.41 -59.42)"/><path class="a" d="M856.14,259.45a13.47,13.47,0,0,1-4.12-5.86,9.84,9.84,0,0,1-.41-1.59,18,18,0,0,1-.1-2.32c0-.57,0-1.46,0-2.68.05-2.09.08-4,.08-5.65a11.23,11.23,0,0,0-4.1.83,36,36,0,0,0-5.94,3.4q-3.86,2.58-10.77,7.92c-2.78,2.1-4.84,3.62-6.2,4.57a26.44,26.44,0,0,1-3.08,1.93,4.4,4.4,0,0,1-1.89.51,3.12,3.12,0,0,1-3.15-3.14q0-2.25,3.59-8a97.31,97.31,0,0,1,7.78-10.77q4.17-5,5.45-5a2.45,2.45,0,0,1,1.75.64,2.18,2.18,0,0,1,.68,1.66,2.88,2.88,0,0,1-.28,1.35,11.84,11.84,0,0,1-1.13,1.58c-.62.73-1.14,1.38-1.57,1.95-1.1,1.33-2.57,3.28-4.39,5.84a24.11,24.11,0,0,0-2.74,4.23l0,0a25.7,25.7,0,0,0,2.93-2.17,117.76,117.76,0,0,1,14-9.7c3.55-2,6.44-3,8.64-3a6.1,6.1,0,0,1,4.29,1.47,6,6,0,0,1,1.62,4.65c0,.68-.09,1.83-.26,3.44-.17,1.76-.25,3.05-.25,3.87a3.75,3.75,0,0,0,0,.68,8.07,8.07,0,0,0,2,4.5,5.76,5.76,0,0,0,4.44,1.66,15.58,15.58,0,0,0,7.56-2.27,40.28,40.28,0,0,0,8-6.06,33.24,33.24,0,0,1,3.08-2.74,3.15,3.15,0,0,1,1.77-.53,2.29,2.29,0,0,1,1.8.79,2.5,2.5,0,0,1,.7,1.72q0,1.28-3.1,4.29a48.63,48.63,0,0,1-7.45,5.84,29,29,0,0,1-8,3.8,18.59,18.59,0,0,1-4.84.55A10,10,0,0,1,856.14,259.45Z" transform="translate(-215.41 -59.42)"/><path class="a" d="M872.36,272.24a3,3,0,0,1-.93-2.3q0-1.44,2.25-6.9t5.06-10.81q3.9-7.39,11.51-20t13.8-21.83c.15-.2.33-.5.56-.89a16.55,16.55,0,0,0,1.53-2.55,22.37,22.37,0,0,0-4-.19q-3.95-.08-9.19-.13l-9.75-.09-5.18,0a40,40,0,0,0-4.93.17h-.38a13,13,0,0,1-3.53-.53A4.7,4.7,0,0,1,866.8,205a2.4,2.4,0,0,1-.38-1.36,2.52,2.52,0,0,1,.38-1.38,1.9,1.9,0,0,1,1.06-.83q.76-.07,6.54-.08,9.78,0,26.68.21l8.84.09c.42-.49,2-2.68,4.76-6.59,4.1-5.8,6.42-9,7-9.51a2.73,2.73,0,0,1,1.91-.85,2.17,2.17,0,0,1,1.62.7,2.42,2.42,0,0,1,.68,1.76,7.68,7.68,0,0,1-1.53,3.36q-1.53,2.33-4.34,6.11c-1.21,1.65-2.1,2.88-2.65,3.7a4.38,4.38,0,0,0-.83,1.61,36.07,36.07,0,0,0,5,.43l9.82.42q15.79.72,25.29,1.26c6.33.35,9.8.67,10.39,1a2.53,2.53,0,0,1,1.1,1,2.44,2.44,0,0,1,.39,1.34c0,1.75-1.14,2.63-3.4,2.63l-5.69-.3q-41.25-2.09-44.95-2.08a5.55,5.55,0,0,0-2,.17c-.45.57-2,2.83-4.58,6.8s-5,7.62-7.14,11q-10.32,16.4-16.8,28.52t-7,16.12a3.79,3.79,0,0,1-1,2.26,2.39,2.39,0,0,1-1.72.72A2.78,2.78,0,0,1,872.36,272.24Z" transform="translate(-215.41 -59.42)"/><path class="a" d="M905.75,261.58q-7.21-1.57-8.66-8.08a18.87,18.87,0,0,1-.34-4.24,32.26,32.26,0,0,1,.64-7.06,83.18,83.18,0,0,1,6.45-16.95A232.45,232.45,0,0,1,916.42,203a109.41,109.41,0,0,1,9-13q3.46-4,5.63-4a2.46,2.46,0,0,1,1.85.82,3,3,0,0,1,.79,2.15,4.91,4.91,0,0,1-.83,2.8,2.68,2.68,0,0,1-2.36,1.23,3,3,0,0,0-1,.13,1.13,1.13,0,0,0-.53.51q-1.87,2.34-6.35,9.39T915,215.87q-8.41,15-11.64,25a35.9,35.9,0,0,0-1.36,8.36q0,4.13,2,5.74a7.92,7.92,0,0,0,5.2,1.61c2.07,0,5.06-.9,9-2.69a44.87,44.87,0,0,0,8.73-5q2.93-2.17,3.69-2.62a3,3,0,0,1,1.45-.44,2.47,2.47,0,0,1,1.76.7,2.29,2.29,0,0,1,.74,1.72,3.91,3.91,0,0,1-.21,1.44q-.56,1-5,4a62.49,62.49,0,0,1-10,5.43,24.63,24.63,0,0,1-9.68,2.43,14.79,14.79,0,0,1-2,.12A11.76,11.76,0,0,1,905.75,261.58Z" transform="translate(-215.41 -59.42)"/><path class="a" d="M907.16,299.38a8.62,8.62,0,0,1-2.89-6.75q0-7,7.52-14.23,6.29-6,17.67-12.41a180.72,180.72,0,0,1,25.74-11.64q2.09-5,3-7.71a37.75,37.75,0,0,0,1.46-5.37l-.08.08q-2.76,2.18-6.2,5.44-5.24,4.85-8.58,7.54a32.92,32.92,0,0,1-5.7,3.85,9.93,9.93,0,0,1-4.33,1.14,5,5,0,0,1-4-1.91,7.66,7.66,0,0,1-1.57-5,20.93,20.93,0,0,1,2-7.9,40.07,40.07,0,0,1,4.5-8.12c1.7-2.32,3-3.48,4-3.48a2.58,2.58,0,0,1,1.67.6,1.74,1.74,0,0,1,.75,1.4,4.91,4.91,0,0,1-1.23,2.72,33.84,33.84,0,0,0-4.44,7.47,17.93,17.93,0,0,0-1.85,6.8,4.89,4.89,0,0,0,.15,1.4.58.58,0,0,0,.57.47q1.06,0,4.06-2.08a70.41,70.41,0,0,0,7.24-6q5.68-5.24,7.35-6.67c1.1-1,2.11-1.77,3-2.43a8.27,8.27,0,0,1,4.33-1.69,3.34,3.34,0,0,1,2.65,1.27,5.52,5.52,0,0,1,1.09,3.7,19,19,0,0,1-.66,4.37c-.44,1.79-1.21,4.33-2.32,7.65q11.85-3.27,16.95-4.42a12,12,0,0,1,2.3-.34,2.49,2.49,0,0,1,2,.87,2.74,2.74,0,0,1,.75,1.81,2.69,2.69,0,0,1-.55,1.65,8,8,0,0,1-2.68,1.13q-2.21.66-6.93,1.89-10.23,2.71-14.65,4.29A142.38,142.38,0,0,1,950,275.08a88.35,88.35,0,0,1-11,13.13Q925,302,914.76,302A10.93,10.93,0,0,1,907.16,299.38Zm10.19-3.18a21.61,21.61,0,0,0,2.17-.64,36.92,36.92,0,0,0,9.24-5.69,83.55,83.55,0,0,0,10-9.58,91.77,91.77,0,0,0,8.75-11.54c1-1.52,1.89-3,2.7-4.48a10.46,10.46,0,0,0,1.21-2.61l0-.08h-.05a29.93,29.93,0,0,0-5.35,2.08q-4.71,2.07-10.64,5.18T924.66,275a64.7,64.7,0,0,0-9,6.9,26.57,26.57,0,0,0-4.86,5.89,9.9,9.9,0,0,0-1.47,4.71,3.38,3.38,0,0,0,1.3,2.83,6,6,0,0,0,3.72,1h.76A11.49,11.49,0,0,0,917.35,296.2Z" transform="translate(-215.41 -59.42)"/><path class="a" d="M369.89,174.82a2.47,2.47,0,0,1-.78-1.91q0-2.72,3.05-9.92T381,145.24q5.81-10.56,13.57-22.84,3.11-4.87,24.39-36.53l3-4.46q-13.12.39-24.83.85t-19.58,1c-5.25.32-8.09.63-8.52.91a1.83,1.83,0,0,0-.34.51,2.42,2.42,0,0,1-.68,1,2.23,2.23,0,0,1-1.44.36,10.92,10.92,0,0,1-2.29-.28,5.52,5.52,0,0,1-1.83-.61,2.63,2.63,0,0,1-1.36-2.34A2.44,2.44,0,0,1,362,80.9a8.69,8.69,0,0,1,3.48-1.38,77.73,77.73,0,0,1,7.88-1.25q8.88-1,27-1.64T437.07,76q14.74,0,30.17.57t17.07,1a3.15,3.15,0,0,1,1.6.94,2.25,2.25,0,0,1,.74,1.53,2.94,2.94,0,0,1-.38,1.38,2.74,2.74,0,0,1-.94,1l0,0a2,2,0,0,1-.55.19,5.11,5.11,0,0,1-1.06.07c-1.25,0-2.78-.07-4.59-.22q-5.44-.42-15.85-.72t-35.43-.29q-2.58,4.92-18.39,28.75-10.5,15.56-16.67,25.75T381.3,156.69q-3,5.94-4.34,9.26a58.22,58.22,0,0,0-2.25,7.05,4.08,4.08,0,0,1-1.27,1.87,2.84,2.84,0,0,1-1.79.68A2.52,2.52,0,0,1,369.89,174.82Z" transform="translate(-215.41 -59.42)"/><path class="a" d="M458.63,134.21a12.24,12.24,0,0,1-4-7.56c0-.25-.09-.61-.17-1.06a15.4,15.4,0,0,0-.85-3.8,2,2,0,0,0-2-1q-2.88,0-8.64,2.93a110.77,110.77,0,0,0-14.08,9A34.42,34.42,0,0,1,424,136a6.3,6.3,0,0,1-2.7.7,3,3,0,0,1-2.33-1.08,3.59,3.59,0,0,1-.94-2.4c0-1.28.72-3.68,2.15-7.23A135.44,135.44,0,0,1,426.48,113q4.18-7.76,10-16.54,2.37-3.57,7.86-11t8.45-11q2.55-3,5.33-6.07A67.19,67.19,0,0,1,464,62.61c2.09-1.8,3.74-2.69,4.93-2.69a2.63,2.63,0,0,1,2,.74,2.43,2.43,0,0,1,.72,1.76c0,.94-.62,1.7-1.87,2.3q-2.5,1.09-8.66,8.22T447.93,89.67q-7,9.63-11.83,17.53-3.32,5.6-7.1,13t-3.78,8.2v.09h0a7.21,7.21,0,0,0,1.65-1.07,110.21,110.21,0,0,1,10.52-6.81,51.22,51.22,0,0,1,8.81-4.27,20.3,20.3,0,0,1,5.48-1,6.44,6.44,0,0,1,.81,0,7.22,7.22,0,0,1,4.78,2.25q1.46,1.79,2.1,6c.11.57.27,1.36.47,2.38.14.82.22,1.29.25,1.4q1.62,4.08,6.54,4.08a17.42,17.42,0,0,0,4.85-.87,41.1,41.1,0,0,0,5.8-2.27,38.76,38.76,0,0,0,5.11-2.93l.22-.13q3.43-2.39,4.65-3.19a14.09,14.09,0,0,1,1.76-1,2.94,2.94,0,0,1,1.11-.23,2.54,2.54,0,0,1,1.86.7,2.28,2.28,0,0,1,.73,1.72,2.85,2.85,0,0,1-.3,1.23q-.42.72-4.89,3.95a59.87,59.87,0,0,1-10.19,5.87,26,26,0,0,1-10.75,2.63A12,12,0,0,1,458.63,134.21Z" transform="translate(-215.41 -59.42)"/><path class="a" d="M495.76,136.27a10.77,10.77,0,0,1-6-3.37,8.28,8.28,0,0,1-2.29-5.82,16,16,0,0,1,3-8.84,26.55,26.55,0,0,1,7.65-7.54,16.5,16.5,0,0,1,9-3,8.93,8.93,0,0,1,3.84.7,5,5,0,0,1,2.27,2.14,6.6,6.6,0,0,1,.6,1.43,9,9,0,0,1,.13,1.8,8.54,8.54,0,0,1-.15,1.93,11,11,0,0,1-.7,1.72q-1.78,3.41-6.82,5.82a30.43,30.43,0,0,1-11.28,2.85l-2.17.21a4.45,4.45,0,0,0,1.72,3.87q1.72,1.23,6.27,1.23a35.41,35.41,0,0,0,10.6-1.91,51.71,51.71,0,0,0,12.25-6c1.65-1.16,2.88-1.74,3.7-1.74a2.23,2.23,0,0,1,1.64.66,2.18,2.18,0,0,1,.65,1.59c0,1-.77,2.11-2.31,3.35a33.83,33.83,0,0,1-5.95,3.72,63.31,63.31,0,0,1-7.58,3.25,41.37,41.37,0,0,1-7,1.91,36.36,36.36,0,0,1-6,.47A23.94,23.94,0,0,1,495.76,136.27Zm3.17-15.82a23.15,23.15,0,0,0,7.13-3.08q2.85-1.94,2.85-3.5c0-.63-.48-.94-1.45-.94a10.31,10.31,0,0,0-3.82,1,20.39,20.39,0,0,0-4.5,2.74,24.15,24.15,0,0,0-2.61,2.47c-.84.9-1.26,1.5-1.26,1.78,0,.11.1.17.3.17A24.15,24.15,0,0,0,498.93,120.45Z" transform="translate(-215.41 -59.42)"/><path class="a" d="M667.62,175.33q-13.77-2.76-17.38-17.88a27.55,27.55,0,0,1-.4-3.93q-.15-2.78-.15-5.67,0-12.06,6.2-27.87a2.83,2.83,0,0,1,.17-.42,2.62,2.62,0,0,0,.21-.55V119q-.25,0-5.65,6.33-6.75,7.74-12.17,13.79t-10,10.6a123.53,123.53,0,0,1-10.92,9.85,47.76,47.76,0,0,1-9.11,5.84,17.89,17.89,0,0,1-7.45,1.94,9,9,0,0,1-7.08-3,11.7,11.7,0,0,1-2.65-8.05,27.54,27.54,0,0,1,1.38-8.07,79.32,79.32,0,0,1,4.59-11q3.21-6.54,9-16.87,6.12-10.95,9.18-17a70.58,70.58,0,0,0,4.18-9.67A22,22,0,0,0,620.72,87a6.65,6.65,0,0,0-2.91-6c-1.94-1.28-5-1.91-9.07-1.91q-11.13,0-24.26,5.82A83.74,83.74,0,0,0,573,91.44a76.75,76.75,0,0,0-9.88,7.6q-3.93,3.66-3.93,5.35a2,2,0,0,1-.66,1.55,2.24,2.24,0,0,1-1.59.62,2.5,2.5,0,0,1-1.82-.79,2.62,2.62,0,0,1-.81-2q0-1.74,2-4.53a39.34,39.34,0,0,1,5.67-6.16,71.06,71.06,0,0,1,8.78-6.69A81.17,81.17,0,0,1,590,76.91a60.42,60.42,0,0,1,19-3.27q13.13,0,16.36,8.7a7.87,7.87,0,0,1,.44,1.83,29.45,29.45,0,0,1,.11,3,25.93,25.93,0,0,1-.15,3.25,27.51,27.51,0,0,1-.61,2.9,51.09,51.09,0,0,1-3.89,10.14q-3,6.09-11.49,21.26-4.25,7.61-7.14,13.42a96.06,96.06,0,0,0-4.5,10.37,23.69,23.69,0,0,0-1.62,7.69,7.41,7.41,0,0,0,1,4.09,3.58,3.58,0,0,0,3.25,1.47q5.94,0,15.33-8t23.54-24.23q8.63-9.9,13.42-15.29t7.18-7.93a33.76,33.76,0,0,1,3.27-3.18,2.74,2.74,0,0,1,1.49-.66,3,3,0,0,1,2,.93,2.62,2.62,0,0,1,1,1.79,2.79,2.79,0,0,1-.34.93,127.91,127.91,0,0,0-11,29.74,61.7,61.7,0,0,0-1.76,13.51,27.81,27.81,0,0,0,2.08,11.4,15.44,15.44,0,0,0,5.78,7,15.61,15.61,0,0,0,8.54,2.34q9.21,0,21.07-9.31a107.17,107.17,0,0,0,17-17.26,167.92,167.92,0,0,0,15.37-23.81,91.6,91.6,0,0,0,7.18-16.23A50.87,50.87,0,0,0,733.61,97a30.51,30.51,0,0,0,.4-5.39,31.22,31.22,0,0,0-.1-3.17,7.25,7.25,0,0,0-.53-1.84q-1.36-3.92-6-5.14a5.65,5.65,0,0,1-2.12-1.09,2.42,2.42,0,0,1-.51-1.72,2.93,2.93,0,0,1,.59-1.83,2.33,2.33,0,0,1,2-.76,10.66,10.66,0,0,1,4.35,1.27,12.24,12.24,0,0,1,4,2.77q3.82,4.32,3.83,11.21a40.67,40.67,0,0,1-2,11.64A97.6,97.6,0,0,1,732,116.8a149.23,149.23,0,0,1-8,14.61q-4.58,7.31-9.73,14a125,125,0,0,1-10.35,11.85,104.35,104.35,0,0,1-9.74,8.64,57.61,57.61,0,0,1-9,5.8,34.51,34.51,0,0,1-8.54,3.1,14,14,0,0,1-2.8.53,31.26,31.26,0,0,1-3.49.19A16.39,16.39,0,0,1,667.62,175.33Z" transform="translate(-215.41 -59.42)"/><path class="a" d="M746.35,136.27a11.62,11.62,0,0,1-3.42-1.27,11.82,11.82,0,0,1-2.59-2.1,8.28,8.28,0,0,1-2.29-5.82,15.91,15.91,0,0,1,3-8.84,26.39,26.39,0,0,1,7.64-7.54,16.53,16.53,0,0,1,9-3,8.87,8.87,0,0,1,3.84.7,5,5,0,0,1,2.28,2.14,6.46,6.46,0,0,1,.59,1.43,8.3,8.3,0,0,1,.13,1.8,8.54,8.54,0,0,1-.15,1.93,10.08,10.08,0,0,1-.7,1.72q-1.79,3.41-6.82,5.82a30.33,30.33,0,0,1-11.28,2.85l-2.16.21a4.42,4.42,0,0,0,1.72,3.87q1.71,1.23,6.26,1.23a35.41,35.41,0,0,0,10.6-1.91,51.77,51.77,0,0,0,12.26-6q2.46-1.74,3.69-1.74a2.23,2.23,0,0,1,1.64.66,2.15,2.15,0,0,1,.66,1.59c0,1-.78,2.11-2.32,3.35a33.46,33.46,0,0,1-6,3.72,62.62,62.62,0,0,1-7.58,3.25,41.37,41.37,0,0,1-7,1.91,36.36,36.36,0,0,1-6,.47A23.94,23.94,0,0,1,746.35,136.27Zm3.17-15.82a23.32,23.32,0,0,0,7.14-3.08q2.83-1.94,2.84-3.5c0-.63-.48-.94-1.44-.94a10.3,10.3,0,0,0-3.83,1,20.62,20.62,0,0,0-4.5,2.74,24.15,24.15,0,0,0-2.61,2.47c-.84.9-1.25,1.5-1.25,1.78,0,.11.09.17.29.17A24.15,24.15,0,0,0,749.52,120.45Z" transform="translate(-215.41 -59.42)"/><path class="a" d="M789.11,136.68c-2.78-.4-4.71-1.08-5.82-2a4,4,0,0,1-1.66-2.93,2.93,2.93,0,0,1,1.17-2.36,5.67,5.67,0,0,1,3.63-1c.82,0,2.37.09,4.63.26q5.24.38,8.2.38a30.24,30.24,0,0,0,3.91-4.54,7,7,0,0,0,1.15-3.87,3.38,3.38,0,0,0-1.08-2.66,4.56,4.56,0,0,0-3.08-.95,12.84,12.84,0,0,0-6,1.87,35.47,35.47,0,0,0-6.75,4.93,44.37,44.37,0,0,0-5.91,6.5l-.34.46a23.18,23.18,0,0,1-2.48,3,2.76,2.76,0,0,1-1.89.66,2.82,2.82,0,0,1-2.25-1,3.78,3.78,0,0,1-.85-2.59,26.21,26.21,0,0,1,1.82-7.8,102.42,102.42,0,0,1,4-9.74,177.36,177.36,0,0,1,23.74-36.92q4.34-5,9.75-10.17t6.91-5.72a3.31,3.31,0,0,1,1.36-.3A2.42,2.42,0,0,1,823,61a2.55,2.55,0,0,1,.7,1.87,2.25,2.25,0,0,1-.81,1.65,2.21,2.21,0,0,1-1.31.77c-.2,0-1.85,1.53-5,4.61s-5.46,5.5-7.07,7.28A148.81,148.81,0,0,0,797.5,92.62a186.5,186.5,0,0,0-10.68,18.14q-.86,1.58-3,5.91a27,27,0,0,0-2.14,4.88s0,0,0,0,.55-.34,1.23-1a38.46,38.46,0,0,1,8.69-6.44,18.52,18.52,0,0,1,8.64-2.53,10.18,10.18,0,0,1,4.48,1,8.67,8.67,0,0,1,3.47,3,8.32,8.32,0,0,1,1.31,4.69,11.52,11.52,0,0,1-.59,3.7,30.22,30.22,0,0,1-1.45,3.48,4.15,4.15,0,0,0-.46,1.07c0,.08.08.12.25.12a41.45,41.45,0,0,0,7.44-1.48,24.3,24.3,0,0,0,4.29-1.6q1.82-.91,3.86-2.14c.91-.54,1.6-.92,2.06-1.15a3.05,3.05,0,0,1,1.34-.34,2.15,2.15,0,0,1,1.59.68,2.29,2.29,0,0,1,.66,1.66,3.19,3.19,0,0,1-1.06,2.29,20.17,20.17,0,0,1-3.74,2.55,28.14,28.14,0,0,1-4.63,2.25,40.43,40.43,0,0,1-7.45,2.06,69.49,69.49,0,0,1-7.16.75c-1.56.08-2.77.18-3.63.29a7.91,7.91,0,0,0-2.36.68,20.57,20.57,0,0,1-4,1.09,25,25,0,0,1-4.25.44A7,7,0,0,1,789.11,136.68Z" transform="translate(-215.41 -59.42)"/></svg>